<svg width="24" height="13" viewBox="0 0 24 13" fill="none" xmlns="http://www.w3.org/2000/svg">
<path d="M23.6801 12.6823C23.5788 12.783 23.4585 12.8629 23.326 12.9174C23.1936 12.9719 23.0517 13 22.9083 13C22.7649 13 22.623 12.9719 22.4906 12.9174C22.3581 12.8629 22.2378 12.783 22.1365 12.6823L11.9999 2.6154L1.86322 12.6823C1.65853 12.8856 1.38092 12.9998 1.09145 12.9998C0.801979 12.9998 0.524364 12.8856 0.319678 12.6823C0.114992 12.4791 5.70615e-09 12.2034 0 11.916C-5.70615e-09 11.6285 0.114992 11.3528 0.319678 11.1496L11.2281 0.317685C11.3294 0.216974 11.4497 0.137079 11.5821 0.0825686C11.7146 0.0280578 11.8565 0 11.9999 0C12.1432 0 12.2852 0.0280578 12.4176 0.0825686C12.55 0.137079 12.6703 0.216974 12.7716 0.317685L23.6801 11.1496C23.7815 11.2502 23.862 11.3697 23.9169 11.5012C23.9717 11.6327 24 11.7736 24 11.916C24 12.0583 23.9717 12.1993 23.9169 12.3308C23.862 12.4623 23.7815 12.5817 23.6801 12.6823Z" fill="black"/>
</svg>
